<svg width="160" height="33" viewBox="0 0 160 33" fill="none" xmlns="http://www.w3.org/2000/svg">
<path d="M6.93203 15.488C8.69203 15.488 10.092 15.928 11.132 16.808C12.172 17.688 12.692 18.928 12.692 20.528C12.692 22.304 12.124 23.704 10.988 24.728C9.86803 25.736 8.30003 26.24 6.28403 26.24C5.40403 26.24 4.57203 26.16 3.78803 26C3.02003 25.84 2.37203 25.608 1.84403 25.304V23.312C2.42003 23.664 3.11603 23.944 3.93203 24.152C4.76403 24.344 5.55603 24.44 6.30803 24.44C7.57203 24.44 8.58803 24.144 9.35603 23.552C10.14 22.944 10.532 22.008 10.532 20.744C10.532 19.624 10.188 18.768 9.50003 18.176C8.81203 17.568 7.72403 17.264 6.23603 17.264C5.78803 17.264 5.27603 17.304 4.70003 17.384C4.12403 17.464 3.66003 17.544 3.30803 17.624L2.25203 16.952L2.90003 8.864H11.492V10.784H4.70003L4.29203 15.752C4.56403 15.704 4.93203 15.648 5.39603 15.584C5.86003 15.52 6.37203 15.488 6.93203 15.488ZM25.9704 26H16.3944V8.864H25.9704V10.76H18.5544V16.112H25.5384V17.984H18.5544V24.104H25.9704V26ZM45.6847 21.416C45.6847 22.936 45.1327 24.12 44.0287 24.968C42.9247 25.816 41.4367 26.24 39.5647 26.24C38.6047 26.24 37.7167 26.168 36.9007 26.024C36.0847 25.88 35.4047 25.68 34.8607 25.424V23.36C35.4367 23.616 36.1487 23.848 36.9967 24.056C37.8607 24.264 38.7487 24.368 39.6607 24.368C40.9407 24.368 41.9007 24.12 42.5407 23.624C43.1967 23.128 43.5247 22.456 43.5247 21.608C43.5247 21.048 43.4047 20.576 43.1647 20.192C42.9247 19.808 42.5087 19.456 41.9167 19.136C41.3407 18.8 40.5327 18.448 39.4927 18.08C38.0367 17.552 36.9327 16.904 36.1807 16.136C35.4447 15.368 35.0767 14.32 35.0767 12.992C35.0767 12.08 35.3087 11.304 35.7727 10.664C36.2367 10.008 36.8767 9.504 37.6927 9.152C38.5247 8.8 39.4767 8.624 40.5487 8.624C41.4927 8.624 42.3567 8.712 43.1407 8.888C43.9247 9.064 44.6367 9.296 45.2767 9.584L44.6047 11.432C44.0127 11.176 43.3647 10.96 42.6607 10.784C41.9727 10.608 41.2527 10.52 40.5007 10.52C39.4287 10.52 38.6207 10.752 38.0767 11.216C37.5327 11.664 37.2607 12.264 37.2607 13.016C37.2607 13.592 37.3807 14.072 37.6207 14.456C37.8607 14.84 38.2527 15.184 38.7967 15.488C39.3407 15.792 40.0767 16.12 41.0047 16.472C42.0127 16.84 42.8607 17.24 43.5487 17.672C44.2527 18.088 44.7807 18.592 45.1327 19.184C45.5007 19.776 45.6847 20.52 45.6847 21.416ZM49.9286 8.312C50.2486 8.312 50.5286 8.424 50.7686 8.648C51.0246 8.856 51.1526 9.192 51.1526 9.656C51.1526 10.104 51.0246 10.44 50.7686 10.664C50.5286 10.888 50.2486 11 49.9286 11C49.5766 11 49.2806 10.888 49.0406 10.664C48.8006 10.44 48.6806 10.104 48.6806 9.656C48.6806 9.192 48.8006 8.856 49.0406 8.648C49.2806 8.424 49.5766 8.312 49.9286 8.312ZM50.9606 13.136V26H48.8486V13.136H50.9606ZM59.5961 26.24C57.9961 26.24 56.7161 25.688 55.7561 24.584C54.7961 23.464 54.3161 21.8 54.3161 19.592C54.3161 17.384 54.7961 15.72 55.7561 14.6C56.7321 13.464 58.0201 12.896 59.6201 12.896C60.6121 12.896 61.4201 13.08 62.0441 13.448C62.6841 13.816 63.2041 14.264 63.6041 14.792H63.7481C63.7321 14.584 63.7001 14.28 63.6521 13.88C63.6201 13.464 63.6041 13.136 63.6041 12.896V7.76H65.7161V26H64.0121L63.7001 24.272H63.6041C63.2201 24.816 62.7081 25.28 62.0681 25.664C61.4281 26.048 60.6041 26.24 59.5961 26.24ZM59.9321 24.488C61.2921 24.488 62.2441 24.12 62.7881 23.384C63.3481 22.632 63.6281 21.504 63.6281 20V19.616C63.6281 18.016 63.3641 16.792 62.8361 15.944C62.3081 15.08 61.3321 14.648 59.9081 14.648C58.7721 14.648 57.9161 15.104 57.3401 16.016C56.7801 16.912 56.5001 18.12 56.5001 19.64C56.5001 21.176 56.7801 22.368 57.3401 23.216C57.9161 24.064 58.7801 24.488 59.9321 24.488ZM74.7697 12.896C75.8737 12.896 76.8177 13.136 77.6017 13.616C78.4017 14.096 79.0097 14.776 79.4257 15.656C79.8577 16.52 80.0737 17.536 80.0737 18.704V19.976H71.2657C71.2977 21.432 71.6657 22.544 72.3697 23.312C73.0897 24.064 74.0897 24.44 75.3697 24.44C76.1857 24.44 76.9057 24.368 77.5297 24.224C78.1697 24.064 78.8257 23.84 79.4977 23.552V25.4C78.8417 25.688 78.1937 25.896 77.5537 26.024C76.9137 26.168 76.1537 26.24 75.2737 26.24C74.0577 26.24 72.9777 25.992 72.0337 25.496C71.1057 25 70.3777 24.264 69.8497 23.288C69.3377 22.296 69.0817 21.088 69.0817 19.664C69.0817 18.256 69.3137 17.048 69.7777 16.04C70.2577 15.032 70.9217 14.256 71.7697 13.712C72.6337 13.168 73.6337 12.896 74.7697 12.896ZM74.7457 14.624C73.7377 14.624 72.9377 14.952 72.3457 15.608C71.7697 16.248 71.4257 17.144 71.3137 18.296H77.8657C77.8497 17.208 77.5937 16.328 77.0977 15.656C76.6017 14.968 75.8177 14.624 74.7457 14.624ZM85.4366 17.288C85.4366 17.544 85.4206 17.88 85.3886 18.296C85.3726 18.712 85.3566 19.072 85.3406 19.376H85.4366C85.5326 19.248 85.6766 19.064 85.8686 18.824C86.0606 18.584 86.2526 18.344 86.4446 18.104C86.6526 17.848 86.8286 17.64 86.9726 17.48L91.0766 13.136H93.5486L88.3406 18.632L93.9086 26H91.3646L86.9006 20L85.4366 21.272V26H83.3486V7.76H85.4366V17.288ZM97.2489 8.312C97.5689 8.312 97.8489 8.424 98.0889 8.648C98.3449 8.856 98.4729 9.192 98.4729 9.656C98.4729 10.104 98.3449 10.44 98.0889 10.664C97.8489 10.888 97.5689 11 97.2489 11C96.8969 11 96.6009 10.888 96.3609 10.664C96.1209 10.44 96.0009 10.104 96.0009 9.656C96.0009 9.192 96.1209 8.856 96.3609 8.648C96.6009 8.424 96.8969 8.312 97.2489 8.312ZM98.2809 13.136V26H96.1689V13.136H98.2809ZM107.516 26.24C106.38 26.24 105.364 26.008 104.468 25.544C103.588 25.08 102.892 24.36 102.38 23.384C101.884 22.408 101.636 21.16 101.636 19.64C101.636 18.056 101.9 16.768 102.428 15.776C102.956 14.784 103.668 14.056 104.564 13.592C105.476 13.128 106.508 12.896 107.66 12.896C108.316 12.896 108.948 12.968 109.556 13.112C110.164 13.24 110.66 13.4 111.044 13.592L110.396 15.344C110.012 15.2 109.564 15.064 109.052 14.936C108.54 14.808 108.06 14.744 107.612 14.744C105.084 14.744 103.82 16.368 103.82 19.616C103.82 21.168 104.124 22.36 104.732 23.192C105.356 24.008 106.276 24.416 107.492 24.416C108.196 24.416 108.812 24.344 109.34 24.2C109.884 24.056 110.38 23.88 110.828 23.672V25.544C110.396 25.768 109.916 25.936 109.388 26.048C108.876 26.176 108.252 26.24 107.516 26.24ZM115.976 17.288C115.976 17.544 115.96 17.88 115.928 18.296C115.912 18.712 115.896 19.072 115.88 19.376H115.976C116.072 19.248 116.216 19.064 116.408 18.824C116.6 18.584 116.792 18.344 116.984 18.104C117.192 17.848 117.368 17.64 117.512 17.48L121.616 13.136H124.088L118.88 18.632L124.448 26H121.904L117.44 20L115.976 21.272V26H113.888V7.76H115.976V17.288Z" fill="white"/>
<g clip-path="url(#clip0)">
<path d="M140.56 14.3411L135.063 22.5618C134.902 22.8255 135.068 23.1683 135.371 23.202L146.218 24.3659L140.56 14.3411ZM135.386 19.634L139.307 13.182L135.316 10.7572C135.177 10.6729 135 10.7741 135 10.9381V19.5238C135 19.7363 135.276 19.8154 135.386 19.634ZM135.951 25.3383L146.076 29.961C146.352 30.0902 146.667 29.8856 146.667 29.5781V26.1151L136.065 24.9391C135.833 24.9127 135.741 25.2339 135.951 25.3383ZM140.181 11.7444L144.344 4.20656C144.57 3.83426 144.157 3.40236 143.782 3.6191L135.928 8.81924C135.799 8.90467 135.803 9.09662 135.934 9.17678L140.181 11.7444ZM147.5 12.2812H153.188L148.21 3.40184C148.047 3.13395 147.773 3 147.5 3C147.227 3 146.953 3.13395 146.79 3.40184L141.812 12.2812H147.5ZM159.684 10.7572L155.693 13.1825L159.614 19.6345C159.724 19.8159 160 19.7368 160 19.5238V10.9381C160 10.7741 159.823 10.6729 159.684 10.7572ZM154.819 11.7444L159.066 9.17625C159.197 9.09609 159.201 8.90414 159.072 8.81871L151.218 3.6191C150.843 3.40236 150.43 3.83426 150.656 4.20656L154.819 11.7444ZM158.935 24.9391L148.333 26.1145V29.5776C148.333 29.8856 148.648 30.0896 148.924 29.9604L159.049 25.3378C159.259 25.2339 159.167 24.9127 158.935 24.9391ZM154.44 14.3411L148.782 24.3659L159.629 23.202C159.933 23.1677 160.098 22.8255 159.938 22.5618L154.44 14.3411ZM147.5 13.9688H142.269L147.5 23.2368L152.731 13.9688H147.5Z" fill="#E60109"/>
</g>
<defs>
<clipPath id="clip0">
<rect width="25" height="27" fill="white" transform="translate(135 3)"/>
</clipPath>
</defs>
</svg>
